<?xml version="1.0" encoding="utf-8"?>
<!-- Generator: Adobe Illustrator 27.5.0, SVG Export Plug-In . SVG Version: 6.00 Build 0)  -->
<svg version="1.1" id="Layer_1" xmlns="http://www.w3.org/2000/svg" xmlns:xlink="http://www.w3.org/1999/xlink" x="0px" y="0px"
	 viewBox="0 0 1144 296" style="enable-background:new 0 0 1144 296;" xml:space="preserve">
<style type="text/css">
	.st0{fill:none;}
	.st1{fill:#226DB4;}
	.st2{fill:#F9B21D;}
	.st3{fill:#089949;}
	.st4{fill:#E42527;}
</style>
<g>
	<g>
		<path d="M360.3,140.8h76.4v17.3h-54.1V189h43.9v16.4h-43.9v33h56.7v17.3h-79V140.8z"/>
		<path d="M455.1,171.6h20.1V185c5.4-10.4,16.7-15.1,28.4-15.1c20.2,0,29.3,14.2,29.3,33.3v52.6h-20.4v-50.6
			c0-11.8-5.3-18.7-17.2-18.7c-12.6,0-20.1,7.8-20.1,19.9v49.4h-20.1V171.6z"/>
		<path d="M595.5,255.1c-4.3,1.3-8.8,2-13.8,2c-16,0-25.5-8.3-25.5-25v-45.7h-11.3v-14.8h11.3v-17.3l20.1-8.7v26.1h18.5v14.8h-18.5
			v43.9c0,6.6,2.8,10.7,10.2,10.7c2.8,0,6-0.6,9-1.6V255.1z"/>
		<path d="M684.8,237.4c-7,14.8-22.1,19.9-37.5,19.9c-26.5,0-43.2-17.7-43.2-43.9c0-24.6,17-43.6,42.3-43.6
			c27.2,0,40.4,15.9,40.4,48.3h-62.2c0,14.2,8.2,24.6,23.5,24.6c9.1,0,16.6-3.7,21-12.2L684.8,237.4z M666.8,204.9
			c-0.6-12.7-8.3-20.5-20.2-20.5c-12.6,0-20,8.9-21.7,20.5H666.8z"/>
		<path d="M702,171.6h20.1v15.8c5.6-11.5,14.8-17,27.6-17V189c-16.2,0-27.6,5.3-27.6,23.3v43.4H702V171.6z"/>
		<path d="M764.7,171.6h20.1v13.6c5.8-9.8,17.6-15.4,28.8-15.4c25.7,0,38.1,20.6,38.1,43.6c0,23.6-13.2,43.9-37.5,43.9
			c-11.8,0-23.7-4.7-29.3-14.8v42h-20.1V171.6z M831,212.9c0-14.2-7.1-27.4-23.5-27.4c-16.6,0-23.3,13.3-23.3,28.4
			c0,15.6,7.2,27.6,23.9,27.6C825.8,241.6,831,228.4,831,212.9z"/>
		<path d="M867.2,171.6h20.1v15.8c5.6-11.5,14.8-17,27.6-17V189c-16.2,0-27.6,5.3-27.6,23.3v43.4h-20.1V171.6z"/>
		<path d="M940.6,136.1c6.5,0,11.7,4.8,11.7,11.5c0,6.6-5,11.4-11.6,11.4c-6.5,0-12-4.9-12-11.5
			C928.6,140.8,934.1,136.1,940.6,136.1z M930.4,171.8h20.1v83.9h-20.1V171.8z"/>
		<path d="M981.2,230.6c3.1,8.2,11.7,12.2,20.8,12.2c6.5,0,14.6-2,14.6-10c0-8.4-9.1-10.4-19.5-12.6c-13.5-2.8-28.6-6.1-28.6-25
			c0-17.3,16.1-25.5,31.3-25.5c13.3,0,28.6,5,34.1,18.3l-14.9,6.4c-3.3-7.5-11.5-10.3-18.4-10.3c-6.7,0-13.1,2.7-13.1,9.5
			c0,7.7,8.2,9.3,18.4,11.3c13.7,2.7,30.1,5.8,30.1,25.4c0,19.8-16.6,26.8-34.1,26.8c-14.8,0-30.8-5-36-20.1L981.2,230.6z"/>
		<path d="M1126,237.4c-7,14.8-22.1,19.9-37.5,19.9c-26.5,0-43.2-17.7-43.2-43.9c0-24.6,17-43.6,42.3-43.6
			c27.2,0,40.4,15.9,40.4,48.3h-62.2c0,14.2,8.2,24.6,23.5,24.6c9.1,0,16.6-3.7,21-12.2L1126,237.4z M1108,204.9
			c-0.6-12.7-8.3-20.5-20.2-20.5c-12.6,0-20,8.9-21.7,20.5H1108z"/>
	</g>
	<g>
		<g>
			<path d="M360.3,104.4l37-53.4H364V40.5h50.6v5.2l-36.1,53.4h35v10.5h-53.3V104.4z"/>
			<path d="M446.2,58c15.4,0,27.2,10.8,27.2,26.3c0,15.9-12.4,26.4-27.7,26.4c-15.4,0-27.8-10.7-27.8-26.1
				C417.9,68.6,431,58,446.2,58z M460.4,84.3c0-9.3-4.7-17.1-14.7-17.1c-10.2,0-14.3,8.1-14.3,17.4c0,9,4.8,16.6,14.6,16.6
				C456.2,101.3,460.4,93.2,460.4,84.3z"/>
			<path d="M481.7,36.1h12.1v31c3.3-6.3,9.9-9.1,16.9-9.1c12.1,0,18.2,8.5,18.2,20v31.7h-12.2V79.2c0-7.3-3.8-11.3-10.8-11.3
				c-7.8,0-12.1,4.8-12.1,12v29.7h-12.1V36.1z"/>
			<path d="M564.5,58c15.4,0,27.2,10.8,27.2,26.3c0,15.9-12.4,26.4-27.7,26.4c-15.4,0-27.8-10.7-27.8-26.1
				C536.2,68.6,549.3,58,564.5,58z M578.7,84.3c0-9.3-4.7-17.1-14.7-17.1c-10.2,0-14.3,8.1-14.3,17.4c0,9,4.8,16.6,14.6,16.6
				C574.4,101.3,578.7,93.2,578.7,84.3z"/>
			<path d="M624.4,65.8h-7.3V59h7.3v-2.2c0-11.5,0.7-21.6,15.3-21.6c2.2,0,4.5,0.2,6.8,0.9l-2.6,6.2c-1.4-0.2-2.8-0.4-3.9-0.4
				c-5.6,0-7.5,3.6-7.5,8.7V59h12.4v6.8h-12.4v43.9h-8V65.8z"/>
			<path d="M650.8,84.5c0-15,10.4-26.3,25.3-26.3c15.2,0,25,11.6,25,26.1c0,14.9-10.5,26.3-25.5,26.3
				C660.5,110.5,650.8,98.9,650.8,84.5z M692.9,84.3c0-10.5-5.7-19.5-17.1-19.5c-11.5,0-16.6,9.1-16.6,19.5
				c0,10.9,5.6,19.4,16.7,19.4C687.5,103.8,692.9,94.5,692.9,84.3z"/>
			<path d="M713.3,59h8v9.1c3.6-6.8,9.1-9.7,16.6-10v7.6c-11.1,0.4-16.6,4.6-16.6,16.2v27.8h-8V59z"/>
		</g>
	</g>
</g>
<g>
	<path class="st0" d="M161.6,123.5v106.4h24.7V69.8l-41.5,15.4v25.2l11.8,5.3C159.6,117.1,161.6,120.1,161.6,123.5z"/>
	<polygon class="st0" points="144.6,129 127.6,121.3 127.6,229.9 144.6,229.9 	"/>
	<polygon class="st0" points="220.7,78.9 203.3,70.9 203.3,229.9 220.7,229.9 	"/>
	<path class="st0" d="M22.5,54v188c0,18.7,15.2,34,34,34h188c18.7,0,34-15.2,34-34V54c0-18.7-15.2-34-34-34h-188
		C37.7,20,22.5,35.2,22.5,54z M63.3,125.7c0-3.6,2.2-6.7,5.5-8l47.3-17.5c0,0,0.1,0,0.1,0c0.1,0,0.2-0.1,0.3-0.1c0,0,0.1,0,0.1,0
		c0.1,0,0.2-0.1,0.4-0.1c0,0,0.1,0,0.1,0c0.3-0.1,0.6-0.1,1-0.2c0,0,0,0,0,0c0.2,0,0.3,0,0.5,0c0,0,0,0,0,0c0.7,0,1.3,0,2,0.1
		c0,0,0,0,0,0c0.1,0,0.3,0.1,0.4,0.1c0,0,0,0,0.1,0c0.1,0,0.3,0.1,0.4,0.1c0,0,0.1,0,0.1,0c0.1,0,0.3,0.1,0.4,0.1c0,0,0.1,0,0.1,0
		c0.1,0.1,0.3,0.1,0.4,0.2l0,0c0,0,0,0,0,0l5.2,2.3V79.3c0-3.6,2.2-6.7,5.5-8l58.5-21.7c0,0,0,0,0,0c0.1,0,0.3-0.1,0.4-0.1
		c0.1,0,0.1,0,0.2,0c0.1,0,0.2-0.1,0.3-0.1c0.1,0,0.1,0,0.2,0c0.1,0,0.2,0,0.3-0.1c0,0,0.1,0,0.1,0c0.3-0.1,0.6-0.1,1-0.1
		c0,0,0,0,0.1,0c0.1,0,0.3,0,0.4,0c0,0,0,0,0.1,0c0.6,0,1.3,0.1,2,0.2c0,0,0.1,0,0.1,0c0.1,0,0.2,0.1,0.4,0.1c0,0,0.1,0,0.1,0
		c0.1,0,0.2,0.1,0.3,0.1c0,0,0.1,0,0.1,0.1c0.1,0,0.2,0.1,0.3,0.1c0,0,0.1,0,0.1,0.1c0,0,0,0,0,0l34.4,15.8c3,1.4,4.9,4.4,4.9,7.7
		v164.9c0,4.7-3.8,8.5-8.5,8.5H71.8c-4.7,0-8.5-3.8-8.5-8.5V125.7z"/>
	<polygon class="st0" points="110.6,120.4 80.3,131.6 80.3,229.9 110.6,229.9 	"/>
	<path class="st1" d="M71.8,246.9h157.4c4.7,0,8.5-3.8,8.5-8.5V73.4c0-3.3-1.9-6.3-4.9-7.7l-34.4-15.8c0,0,0,0,0,0
		c0,0-0.1,0-0.1-0.1c-0.1,0-0.2-0.1-0.3-0.1c0,0-0.1,0-0.1-0.1c-0.1,0-0.2-0.1-0.3-0.1c0,0-0.1,0-0.1,0c-0.1,0-0.2-0.1-0.4-0.1
		c0,0-0.1,0-0.1,0c-0.6-0.2-1.3-0.2-2-0.2c0,0,0,0-0.1,0c-0.1,0-0.3,0-0.4,0c0,0,0,0-0.1,0c-0.3,0-0.6,0.1-1,0.1c0,0-0.1,0-0.1,0
		c-0.1,0-0.2,0-0.3,0.1c-0.1,0-0.1,0-0.2,0c-0.1,0-0.2,0.1-0.3,0.1c-0.1,0-0.1,0-0.2,0c-0.1,0-0.3,0.1-0.4,0.1c0,0,0,0,0,0
		l-58.5,21.7c-3.3,1.2-5.5,4.4-5.5,8v23.5l-5.2-2.3c0,0,0,0,0,0l0,0c-0.1-0.1-0.3-0.1-0.4-0.2c0,0-0.1,0-0.1,0
		c-0.1,0-0.3-0.1-0.4-0.1c0,0-0.1,0-0.1,0c-0.1,0-0.3-0.1-0.4-0.1c0,0,0,0-0.1,0c-0.1,0-0.3-0.1-0.4-0.1c0,0,0,0,0,0
		c-0.7-0.1-1.3-0.2-2-0.1c0,0,0,0,0,0c-0.2,0-0.3,0-0.5,0c0,0,0,0,0,0c-0.3,0-0.7,0.1-1,0.2c0,0-0.1,0-0.1,0c-0.1,0-0.2,0.1-0.4,0.1
		c0,0-0.1,0-0.1,0c-0.1,0-0.2,0.1-0.3,0.1c0,0-0.1,0-0.1,0l-47.3,17.5c-3.3,1.2-5.5,4.4-5.5,8v112.7
		C63.3,243.1,67.1,246.9,71.8,246.9z M203.3,70.9l17.4,8v151h-17.4V70.9z M144.8,85.2l41.5-15.4v160.1h-24.7V123.5
		c0-3.3-2-6.4-5-7.7l-11.8-5.3V85.2z M127.6,121.3l17,7.6v100.9h-17V121.3z M80.3,131.6l30.4-11.2v109.5H80.3V131.6z"/>
	<path class="st2" d="M142.3,284.5c0-4.7,3.8-8.5,8.5-8.5H56.5c-18.7,0-34-15.2-34-34v-94c0,4.7-3.8,8.5-8.5,8.5
		c-4.7,0-8.5-3.8-8.5-8.5v94c0,28.1,22.9,51,51,51h94.4C146.1,293,142.3,289.2,142.3,284.5z"/>
	<path class="st1" d="M287,156.5c-4.7,0-8.5-3.8-8.5-8.5v94c0,18.7-15.2,34-34,34h-93.7c-4.7,0-8.5,3.8-8.5,8.5
		c0,4.7,3.8,8.5,8.5,8.5h93.7c28.1,0,51-22.9,51-51v-94C295.5,152.7,291.7,156.5,287,156.5z"/>
	<path class="st3" d="M244.5,3h-93.7c4.7,0,8.5,3.8,8.5,8.5c0,4.7-3.8,8.5-8.5,8.5h93.7c18.7,0,34,15.2,34,34v94
		c0,4.7,3.8,8.5,8.5,8.5c4.7,0,8.5-3.8,8.5-8.5V54C295.5,25.9,272.6,3,244.5,3z"/>
	<path class="st4" d="M14,156.5c4.7,0,8.5-3.8,8.5-8.5V54c0-18.7,15.2-34,34-34h94.4c4.7,0,8.5-3.8,8.5-8.5c0-4.7-3.8-8.5-8.5-8.5
		H56.5c-28.1,0-51,22.9-51,51v94C5.5,152.7,9.3,156.5,14,156.5z"/>
</g>
</svg>
